<svg width="61" height="61" viewBox="0 0 61 61" fill="none" xmlns="http://www.w3.org/2000/svg">
<path d="M30.5322 13.4199C24.4778 13.4199 19.5522 18.3455 19.5522 24.3999C19.5522 30.4543 24.4778 35.3799 30.5322 35.3799C36.5867 35.3799 41.5122 30.4543 41.5122 24.3999C41.5122 18.3455 36.5867 13.4199 30.5322 13.4199ZM30.5322 34.4039C25.016 34.4039 20.5282 29.9161 20.5282 24.3999C20.5282 18.8838 25.0161 14.3959 30.5322 14.3959C36.0485 14.3959 40.5362 18.8838 40.5362 24.3999C40.5359 29.9162 36.048 34.4039 30.5322 34.4039Z" fill="black" stroke="black" stroke-width="0.8"/>
<path d="M30.5322 20.5831C28.4276 20.5831 26.7153 22.2957 26.7153 24.4004C26.7153 26.5052 28.4275 28.2177 30.5322 28.2177C32.637 28.2177 34.3495 26.5052 34.3495 24.4004C34.3495 22.2957 32.637 20.5831 30.5322 20.5831ZM30.5322 27.2417C28.9657 27.2417 27.6912 25.9673 27.6912 24.4004C27.6912 22.8339 28.9657 21.5591 30.5322 21.5591C32.0988 21.5591 33.3735 22.8336 33.3735 24.4004C33.3732 25.967 32.0987 27.2417 30.5322 27.2417Z" fill="black" stroke="black" stroke-width="0.8"/>
<path d="M30.5322 16.9823C26.4379 16.9823 23.1071 20.3132 23.1071 24.4075C23.1071 28.5018 26.4379 31.833 30.5322 31.833C34.6266 31.833 37.9578 28.5018 37.9578 24.4075C37.9578 20.3135 34.6266 16.9823 30.5322 16.9823ZM30.5322 30.8572C26.976 30.8572 24.083 27.9641 24.083 24.4076C24.083 20.8514 26.976 17.9583 30.5322 17.9583C34.0887 17.9583 36.9819 20.8514 36.9819 24.4076C36.9815 27.9638 34.0885 30.8572 30.5322 30.8572Z" fill="black" stroke="black" stroke-width="0.8"/>
<path d="M30.5 11.0645C32.2132 11.0645 33.6068 9.67734 33.6068 7.97196C33.6068 6.26727 32.2132 4.88013 30.5 4.88013C28.7868 4.88013 27.3932 6.26727 27.3932 7.9723C27.3932 9.67734 28.7868 11.0645 30.5 11.0645ZM30.5 5.85595C31.675 5.85595 32.6309 6.80537 32.6309 7.97222C32.6309 9.1395 31.675 10.0885 30.5 10.0885C29.325 10.0885 28.3691 9.13906 28.3691 7.97222C28.3691 6.80537 29.325 5.85595 30.5 5.85595Z" fill="black" stroke="black" stroke-width="0.8"/>
<path d="M42.1222 15.8835H42.1311C42.9562 15.8835 43.731 15.5632 44.3131 14.9808C44.8975 14.3967 45.2182 13.6182 45.2158 12.7896C45.2134 11.9624 44.889 11.1836 44.3028 10.5971C43.7163 10.0106 42.9378 9.68654 42.1103 9.6841C41.3005 9.67627 40.5039 10.0024 39.9191 10.5868C39.3346 11.1709 39.0139 11.9495 39.0163 12.7777C39.0184 13.6048 39.3428 14.3837 39.9293 14.9702C40.5159 15.557 41.2947 15.8811 42.1222 15.8834L42.1222 15.8835ZM40.6092 11.2772C41.0071 10.8793 41.5368 10.6604 42.1012 10.6604H42.1069C42.6747 10.6621 43.2091 10.8848 43.6122 11.2875C44.0149 11.6905 44.2378 12.2249 44.2392 12.7927C44.2409 13.3594 44.0217 13.8915 43.6224 14.2907C43.2244 14.6887 42.6947 14.9076 42.1304 14.9076H42.1243C41.5568 14.9062 41.0221 14.6832 40.6193 14.2805C40.2163 13.8775 39.9937 13.3431 39.9923 12.7756C39.9909 12.2085 40.2098 11.6764 40.6091 11.2772L40.6092 11.2772Z" fill="black" stroke="black" stroke-width="0.8"/>
<path d="M43.8355 24.3999C43.8355 26.1131 45.2226 27.5067 46.928 27.5067C48.6327 27.5067 50.0198 26.1131 50.0198 24.3999C50.0198 22.6867 48.6327 21.2931 46.9276 21.2931C45.2226 21.2931 43.8355 22.6867 43.8355 24.3999ZM46.9276 22.269C48.0946 22.269 49.0439 23.2249 49.0439 24.3999C49.0439 25.5749 48.0945 26.5308 46.9276 26.5308C45.7604 26.5308 44.8114 25.5749 44.8114 24.3999C44.8114 23.2249 45.7608 22.269 46.9276 22.269Z" fill="black" stroke="black" stroke-width="0.8"/>
<path d="M42.1222 32.9164C41.2951 32.9185 40.5162 33.2429 39.9297 33.8294C39.3432 34.4159 39.0188 35.1944 39.0167 36.0219C39.0143 36.8501 39.335 37.6283 39.9194 38.2128C40.5015 38.7952 41.2763 39.1155 42.1014 39.1155H42.1106C42.9378 39.1131 43.7166 38.7887 44.3031 38.2025C44.8896 37.616 45.2137 36.8375 45.2161 36.01C45.2185 35.1814 44.8978 34.4032 44.3134 33.8188C43.7286 33.235 42.9454 32.9127 42.1222 32.9164ZM43.6126 37.5125C43.2095 37.9152 42.6751 38.1382 42.1073 38.1395H42.1016C41.5372 38.1395 41.0075 37.9206 40.6096 37.5227C40.2103 37.1234 39.9914 36.5913 39.9928 36.0246C39.9941 35.4572 40.2171 34.9225 40.6198 34.5197C41.0228 34.1166 41.5573 33.894 42.1247 33.8927H42.1309C42.6953 33.8927 43.225 34.1115 43.6228 34.5095C44.0221 34.9088 44.2414 35.4409 44.2397 36.0075C44.2383 36.575 44.0153 37.1095 43.6126 37.5125Z" fill="black" stroke="black" stroke-width="0.8"/>
<path d="M30.5 37.7355C28.7868 37.7355 27.3932 39.1226 27.3932 40.828C27.3932 42.5327 28.7868 43.9198 30.5 43.9198C32.2132 43.9198 33.6068 42.5327 33.6068 40.8277C33.6068 39.1226 32.2132 37.7355 30.5 37.7355ZM30.5 42.944C29.325 42.944 28.3691 41.9946 28.3691 40.8277C28.3691 39.6605 29.325 38.7115 30.5 38.7115C31.675 38.7115 32.6309 39.6609 32.6309 40.8277C32.6309 41.9946 31.675 42.944 30.5 42.944Z" fill="black" stroke="black" stroke-width="0.8"/>
<path d="M16.687 33.8192C16.1025 34.4034 15.7818 35.1819 15.7843 36.0104C15.7867 36.8376 16.1111 37.6165 16.6973 38.203C17.2838 38.7895 18.0623 39.1135 18.8898 39.116H18.899C19.7241 39.116 20.4988 38.7953 21.0809 38.2132C21.6654 37.6291 21.9861 36.8506 21.9837 36.0224C21.9816 35.1952 21.6572 34.4163 21.0707 33.8299C20.4841 33.2434 19.7057 32.919 18.8781 32.9169C18.0476 32.924 17.2712 33.2351 16.687 33.8192ZM21.007 36.0247C21.0087 36.5915 20.7898 37.1235 20.3902 37.5228C19.9923 37.9207 19.4626 38.1396 18.8982 38.1396H18.8924C18.3247 38.1379 17.7903 37.9153 17.3872 37.5126C16.9845 37.1096 16.7616 36.5751 16.7602 36.0074C16.7585 35.4406 16.9777 34.9086 17.377 34.5093C17.7749 34.1114 18.3046 33.8925 18.869 33.8925H18.8751C19.4426 33.8939 19.9773 34.1168 20.3801 34.5195C20.7831 34.9229 21.0056 35.4573 21.007 36.0247Z" fill="black" stroke="black" stroke-width="0.8"/>
<path d="M14.0718 27.5066C15.7769 27.5066 17.1644 26.113 17.1644 24.3998C17.1644 22.6866 15.7772 21.293 14.0718 21.293C12.3668 21.293 10.9797 22.6866 10.9797 24.3998C10.9797 26.113 12.3668 27.5066 14.0718 27.5066ZM14.0718 22.2689C15.2391 22.2689 16.1881 23.2248 16.1881 24.3998C16.1881 25.5748 15.2387 26.5307 14.0718 26.5307C12.905 26.5307 11.9556 25.5748 11.9556 24.3998C11.9556 23.2248 12.905 22.2689 14.0718 22.2689Z" fill="black" stroke="black" stroke-width="0.8"/>
<path d="M18.869 15.8835H18.8779C19.7051 15.8815 20.4839 15.5571 21.0704 14.9705C21.6569 14.384 21.9813 13.6055 21.9834 12.778C21.9858 11.9498 21.6651 11.1716 21.0807 10.5872C20.4966 10.0027 19.7146 9.68854 18.8895 9.68445C18.0623 9.68683 17.2834 10.0112 16.697 10.5974C16.1105 11.184 15.7864 11.9624 15.784 12.79C15.7816 13.6185 16.1022 14.3967 16.6867 14.9812C17.2695 15.5633 18.0439 15.8835 18.869 15.8835ZM17.3873 11.2874C17.7903 10.8847 18.3247 10.6618 18.8925 10.6604H18.8983C19.4627 10.6604 19.9923 10.8793 20.3902 11.2772C20.7895 11.6765 21.0084 12.2086 21.007 12.7753C21.0057 13.3427 20.7827 13.8775 20.38 14.2803C19.977 14.6833 19.4425 14.9059 18.8751 14.9073C18.308 14.8858 17.7763 14.6901 17.377 14.2905C16.9777 13.8912 16.7585 13.3591 16.7602 12.7924C16.7616 12.2249 16.9846 11.6905 17.3873 11.2874Z" fill="black" stroke="black" stroke-width="0.8"/>
<path d="M22.509 10.532C22.5897 10.532 22.671 10.5123 22.7463 10.4701C23.7586 9.90502 24.835 9.45131 25.9454 9.12042C26.2037 9.04349 26.3508 8.77185 26.2739 8.51349C26.1969 8.25478 25.9239 8.10808 25.6669 8.18501C24.4878 8.53596 23.345 9.01831 22.2704 9.61807C22.0348 9.74947 21.9507 10.0466 22.0821 10.2819C22.1716 10.4422 22.3378 10.532 22.509 10.532Z" fill="black" stroke="black" stroke-width="0.8"/>
<path d="M34.824 9.0489C35.9399 9.36581 37.022 9.80595 38.0405 10.3567C38.1143 10.3969 38.194 10.4156 38.2723 10.4156C38.4459 10.4156 38.6137 10.323 38.7019 10.16C38.8302 9.92306 38.742 9.62657 38.5051 9.49859C37.424 8.91344 36.2751 8.44643 35.0905 8.11005C34.8311 8.03687 34.5615 8.18732 34.488 8.44637C34.4141 8.70542 34.5646 8.97537 34.824 9.0489Z" fill="black" stroke="black" stroke-width="0.8"/>
<path d="M44.557 15.9219C44.3215 16.0533 44.2374 16.3504 44.3688 16.5857C44.9338 17.598 45.3876 18.6744 45.7184 19.7848C45.7814 19.9968 45.9758 20.1337 46.1858 20.1337C46.2321 20.1337 46.2787 20.1269 46.325 20.1133C46.5834 20.0363 46.7305 19.7647 46.6535 19.5063C46.3026 18.3272 45.8202 17.1844 45.2205 16.1098C45.0897 15.8745 44.7926 15.7898 44.557 15.9219Z" fill="black" stroke="black" stroke-width="0.8"/>
<path d="M46.3922 28.3275C46.1335 28.2536 45.8636 28.4047 45.7897 28.6638C45.4728 29.7796 45.0327 30.8618 44.4819 31.8802C44.3536 32.1171 44.4417 32.4136 44.6786 32.5416C44.7525 32.5818 44.8322 32.6005 44.9105 32.6005C45.0841 32.6005 45.2519 32.5079 45.34 32.3449C45.9252 31.2638 46.3922 30.1149 46.7286 28.9303C46.8021 28.6705 46.6516 28.401 46.3922 28.3275Z" fill="black" stroke="black" stroke-width="0.8"/>
<path d="M38.9171 38.396C38.7857 38.1604 38.4886 38.0757 38.2533 38.2077C37.241 38.7728 36.1646 39.2265 35.0542 39.5574C34.7959 39.6343 34.6488 39.906 34.7258 40.1643C34.7887 40.3764 34.9831 40.5132 35.1931 40.5132C35.2394 40.5132 35.2861 40.5064 35.3324 40.4928C36.5115 40.1419 37.6543 39.6595 38.7289 39.0598C38.9645 38.9287 39.0489 38.6315 38.9171 38.396Z" fill="black" stroke="black" stroke-width="0.8"/>
<path d="M26.176 39.629C25.0601 39.3121 23.978 38.8719 22.9595 38.3212C22.7226 38.1928 22.4261 38.281 22.2981 38.5179C22.1698 38.7548 22.258 39.0513 22.4949 39.1793C23.576 39.7645 24.7249 40.2315 25.9095 40.5678C25.9541 40.5804 25.999 40.5866 26.0429 40.5866C26.2557 40.5866 26.4511 40.4463 26.512 40.2315C26.5859 39.9721 26.4354 39.7025 26.176 39.629Z" fill="black" stroke="black" stroke-width="0.8"/>
<path d="M15.2814 28.8939C15.2041 28.6352 14.9314 28.4888 14.6744 28.5654C14.4161 28.6423 14.269 28.9139 14.346 29.1723C14.6969 30.3514 15.1793 31.4942 15.779 32.5689C15.8685 32.7289 16.0343 32.8191 16.2055 32.8191C16.2862 32.8191 16.3676 32.7993 16.4428 32.7571C16.6784 32.6257 16.7624 32.3285 16.6311 32.0933C16.066 31.0806 15.6119 30.0042 15.2814 28.8939Z" fill="black" stroke="black" stroke-width="0.8"/>
<path d="M14.6078 20.3514C14.6523 20.364 14.6973 20.3701 14.7412 20.3701C14.9539 20.3701 15.1493 20.2298 15.2103 20.015C15.5272 18.8992 15.9673 17.817 16.5181 16.7986C16.6464 16.5617 16.5583 16.2652 16.3214 16.1372C16.0844 16.0089 15.7883 16.097 15.66 16.334C15.0748 17.415 14.6078 18.5639 14.2714 19.7486C14.1979 20.0079 14.3484 20.2778 14.6078 20.3514Z" fill="black" stroke="black" stroke-width="0.8"/>
</svg>
