<svg width="66" height="66" viewBox="0 0 66 66" fill="none" xmlns="http://www.w3.org/2000/svg">
<path d="M57.1296 34.9536L52.2194 30.0434C52.0083 29.8323 51.6912 29.8323 51.4802 30.0434L50.899 30.6242L49.7374 29.4626V23.4961L50.1072 23.1263C50.477 22.7565 50.688 22.2814 50.688 21.7536C50.688 21.2254 50.477 20.7503 50.1072 20.3809L48.7342 19.0082C48.5232 18.7971 48.2591 18.6384 47.995 18.5331L48.0477 18.4804C48.4175 18.1106 48.6285 17.6355 48.6285 17.1077C48.6285 16.5795 48.4175 16.1044 48.0477 15.735L46.3579 14.0452C46.1469 13.8342 45.8828 13.6754 45.566 13.6227L45.6717 13.517C46.4109 12.7779 46.4109 11.5635 45.6717 10.8243L44.1407 9.29333C43.4016 8.55415 42.1342 8.55415 41.448 9.29333L40.9729 9.76844C40.8672 9.50437 40.7619 9.24029 40.4978 9.02926L39.1251 7.65656C38.7553 7.28678 38.2802 7.1284 37.7524 7.07574C37.2242 7.07574 36.7491 7.28678 36.3797 7.65656L36.2213 7.81493L33.2646 4.85822C32.9471 4.43504 32.419 4.224 31.9438 4.224C31.4157 4.224 30.9406 4.43504 30.5711 4.80482L29.1455 6.23051C28.9344 6.44155 28.7757 6.70563 28.723 6.96969L28.4589 6.70562C28.0891 6.33584 27.614 6.1248 27.0862 6.1248C26.5581 6.1248 26.0829 6.33584 25.7135 6.70562L24.3935 8.02562C24.0237 8.3954 23.8127 8.8705 23.8127 9.39832C23.8127 9.7681 23.9184 10.0848 24.0768 10.4016C23.76 10.5073 23.496 10.6657 23.2319 10.8767L21.9646 12.144C21.5948 12.5138 21.3838 12.9889 21.3838 13.5167C21.3838 13.8865 21.4895 14.2032 21.6478 14.4669C21.3311 14.5726 21.067 14.731 20.803 14.9421L19.3773 16.3678C19.0075 16.7375 18.7965 17.2126 18.7965 17.7405C18.7965 18.0045 18.8491 18.2686 18.9548 18.5323L17.1066 20.3805C16.4731 21.014 16.1564 21.8062 16.1564 22.7038V29.5148L14.9948 30.6764L14.5197 30.0433C14.3087 29.8323 13.9916 29.8323 13.7805 30.0433L8.87032 34.9535C8.65928 35.1645 8.65928 35.4817 8.87032 35.6927L21.5423 48.3647C21.648 48.4704 21.8064 48.5231 21.9121 48.5231C22.0178 48.5231 22.1762 48.4704 22.2819 48.3647L27.1921 43.4545C27.2978 43.3488 27.3505 43.2434 27.3505 43.0847C27.3501 42.9267 27.2974 42.821 27.1917 42.7683L26.6109 42.1875L29.3036 39.4948L33.0526 38.2805L36.6959 39.4421L39.3886 42.1348L38.8082 42.7683C38.7024 42.874 38.6498 42.9793 38.6498 43.1381C38.6498 43.2964 38.7024 43.4021 38.8082 43.5078L43.7184 48.4181C43.8241 48.5238 43.9824 48.5764 44.0881 48.5764C44.1938 48.5764 44.3522 48.5238 44.4579 48.4181L57.1299 35.7461C57.2356 35.6404 57.2883 35.535 57.2883 35.3763C57.2883 35.2175 57.2353 35.0592 57.1299 34.9535L57.1296 34.9536ZM37.752 8.07836C37.963 8.07836 38.1744 8.18406 38.3855 8.34244L39.7582 9.71514C40.0749 10.0319 40.0749 10.6127 39.7582 10.9294L35.7455 14.9422C35.6928 14.3087 35.4287 13.7278 34.9536 13.2524L34.7426 13.0413C35.3761 12.9887 35.9569 12.7246 36.4324 12.2495L36.5907 12.0911C37.541 11.1409 37.6466 9.6095 36.9075 8.5535L37.1185 8.34246C37.3299 8.18409 37.5409 8.07836 37.752 8.07836ZM29.885 6.96975L31.3107 5.54405C31.469 5.38568 31.6804 5.27998 31.9442 5.27998C32.1552 5.27998 32.3666 5.38568 32.5776 5.54405L35.9041 8.87055C36.5906 9.55706 36.5906 10.6657 35.9041 11.3521L35.7458 11.5105C35.429 11.8273 34.9539 12.0387 34.5315 12.0387C34.0563 12.0387 33.6339 11.8803 33.3172 11.5105L29.938 8.13132C29.5682 7.86725 29.5682 7.33913 29.885 6.96975ZM25.1858 8.81756L26.5058 7.49756C26.6641 7.33919 26.8755 7.23349 27.1393 7.23349C27.3503 7.23349 27.5617 7.33919 27.7201 7.49756L34.2148 13.9922C34.9013 14.6788 34.9013 15.7874 34.2148 16.4738L34.1091 16.5795C33.4225 17.2661 32.314 17.2661 31.6275 16.5795L25.978 10.9301H25.9254L25.1858 10.0318C25.0274 9.87348 24.9217 9.66207 24.9217 9.39836C24.9217 9.13429 24.9744 9.02897 25.1858 8.81756ZM22.8099 12.936L24.0772 11.6687C24.2355 11.5103 24.4469 11.4046 24.7106 11.4046C24.9217 11.4046 25.1331 11.4573 25.2915 11.6156L29.5156 15.8397C29.8323 16.1565 29.9907 16.5789 29.9907 17.054C29.9907 17.5292 29.8323 17.9516 29.4625 18.2683C28.776 18.9549 27.6674 18.9549 26.9809 18.2683L22.8099 14.0973C22.6515 13.939 22.5458 13.7275 22.5458 13.5165C22.5458 13.3058 22.6512 13.0944 22.8099 12.9361L22.8099 12.936ZM20.2226 17.1601L21.6483 15.7344C21.8066 15.576 22.018 15.4703 22.2818 15.4703C22.5458 15.4703 22.7042 15.576 22.8626 15.7344L25.3969 18.2687C25.7136 18.5854 25.925 19.0605 25.925 19.483C25.925 19.9581 25.7667 20.3805 25.3969 20.6973L25.1858 20.9083C24.4993 21.5948 23.3907 21.5948 22.7042 20.9083L20.1699 18.374C20.0116 18.2156 19.9059 18.0042 19.9059 17.7405C19.9585 17.5299 20.0642 17.3184 20.2226 17.1601ZM21.912 47.3089L9.97918 35.3761L14.1502 31.205L26.083 43.1378L21.912 47.3089ZM28.8818 38.491C28.7761 38.491 28.7234 38.5436 28.6707 38.5967L25.8723 41.3951L15.8931 31.4159L17.1604 30.0959C17.2661 29.9902 17.3188 29.8848 17.3188 29.7261V22.704C17.3188 22.1232 17.5298 21.5424 17.9523 21.1199L19.6947 19.3775L21.9649 21.6477C22.493 22.1758 23.2322 22.4395 23.9714 22.4395C24.7106 22.4395 25.3971 22.1755 25.9779 21.6477L26.1889 21.4367C26.7171 20.9085 26.9808 20.2751 26.9808 19.5359C27.3506 19.7469 27.7726 19.8526 28.1951 19.8526C28.9343 19.8526 29.6208 19.5885 30.2016 19.0077C30.6767 18.5326 30.9408 17.9518 30.9934 17.3179C31.4685 17.7404 32.0493 18.0044 32.6301 18.0571L30.8884 19.8526C30.6773 20.0636 30.6773 20.3807 30.8884 20.5918C30.9941 20.6975 31.1525 20.7501 31.2582 20.7501C31.3639 20.7501 31.5222 20.6975 31.6279 20.5918L42.1879 10.0318C42.5047 9.71503 43.0855 9.71503 43.4023 10.0318L44.9333 11.5628C45.25 11.8795 45.25 12.4603 44.9333 12.7771L34.7957 22.9147C34.5846 23.1257 34.5846 23.4428 34.7957 23.6539C34.9014 23.7596 35.0597 23.8122 35.1654 23.8122C35.2711 23.8122 35.4295 23.7596 35.5352 23.6539L44.3531 14.836C44.6698 14.5192 45.2507 14.5192 45.5674 14.836L47.2572 16.5258C47.4156 16.6841 47.5213 16.8956 47.5213 17.1066C47.5213 17.3176 47.4156 17.529 47.2572 17.7401L46.0948 19.0078L46.0422 19.0604L45.6724 19.3772L38.5973 26.4523C38.3863 26.6633 38.3863 26.9804 38.5973 27.1915C38.703 27.2972 38.8614 27.3498 38.9671 27.3498C39.0728 27.3498 39.2311 27.2972 39.3369 27.1915L46.7287 19.7996C47.0454 19.4829 47.5735 19.4829 47.8903 19.7996L49.3687 21.1196C49.527 21.278 49.6327 21.4894 49.6327 21.7531C49.6327 21.9642 49.527 22.1756 49.3687 22.3339L35.6407 36.0619C35.3766 36.326 35.0598 36.4844 34.7431 36.5901L28.8818 38.491ZM37.33 38.5967C37.2773 38.544 37.1716 38.491 37.1189 38.491L34.7956 37.7518L35.0597 37.6461C35.5348 37.4877 36.0099 37.2236 36.3797 36.8542L48.6293 24.6046V29.7789C48.6293 29.9373 48.682 30.043 48.7877 30.1487L50.1077 31.4687L40.1803 41.3951L37.33 38.5967ZM44.0884 47.3089L39.9173 43.1379L51.8502 31.2051L56.0212 35.3761L44.0884 47.3089Z" fill="black" stroke="black" stroke-width="0.6"/>
<path d="M14.3616 33.3168C13.2 33.3168 12.3024 34.267 12.3024 35.376C12.3024 36.485 13.2526 37.4352 14.3616 37.4352C15.4706 37.4352 16.4208 36.485 16.4208 35.376C16.4208 34.2674 15.5232 33.3168 14.3616 33.3168ZM14.3616 36.4319C13.7808 36.4319 13.3583 35.9568 13.3583 35.4286C13.3583 34.9004 13.8334 34.4253 14.3616 34.4253C14.8897 34.4253 15.3649 34.9004 15.3649 35.4286C15.3649 35.9567 14.9424 36.4319 14.3616 36.4319Z" fill="black" stroke="black" stroke-width="0.6"/>
<path d="M49.6848 35.4287C49.6848 36.5903 50.635 37.4879 51.744 37.4879C52.853 37.4879 53.8032 36.5377 53.8032 35.4287C53.8032 34.3197 52.853 33.3695 51.744 33.3695C50.635 33.3695 49.6848 34.2671 49.6848 35.4287ZM52.7999 35.4287C52.7999 36.0095 52.3248 36.432 51.7966 36.432C51.2684 36.432 50.7933 35.9569 50.7933 35.4287C50.7933 34.9006 51.2684 34.4254 51.7966 34.4254C52.3248 34.4254 52.7999 34.8479 52.7999 35.4287Z" fill="black" stroke="black" stroke-width="0.6"/>
</svg>
